<svg xmlns="http://www.w3.org/2000/svg" xmlns:xlink="http://www.w3.org/1999/xlink" width="287" height="287" viewBox="0 0 287 287">
  <defs>
    <circle id="yolko-avatar-a" cx="132.5" cy="132.5" r="132.5"/>
    <path id="yolko-avatar-c" d="M82,156 C82,156 120.369412,163.567409 136.328521,163.567409 C152.287631,163.567409 185.893994,156 185.893994,156 C185.893994,156 190.657042,217 136.328521,217 C82,217 82,156 82,156 Z"/>
  </defs>
  <g fill="none" fill-rule="evenodd" transform="translate(11 11)">
    <mask id="yolko-avatar-b" fill="#fff">
      <use xlink:href="#yolko-avatar-a"/>
    </mask>
    <circle cx="132.5" cy="132.5" r="138" stroke="#000" stroke-width="11"/>
    <circle cx="131.5" cy="196.5" r="141.5" fill="#F7A605" mask="url(#yolko-avatar-b)"/>
    <ellipse cx="131.5" cy="125.5" fill="#FFC614" mask="url(#yolko-avatar-b)" rx="141.5" ry="125.5" transform="matrix(-1 0 0 1 263 0)"/>
    <circle cx="42" cy="145" r="13" fill="#FAB52C" mask="url(#yolko-avatar-b)"/>
    <circle cx="215" cy="145" r="13" fill="#FAB52C" mask="url(#yolko-avatar-b)"/>
    <path fill="#000" fill-rule="nonzero" d="M86.7576378 112.071724C86.8167925 112.026142 86.9446892 111.928966 87.1335653 111.787711 87.4571534 111.545709 87.8265529 111.274362 88.2338725 110.981244 89.3980435 110.143475 90.6232817 109.306037 91.8424875 108.531094 92.6310636 108.029865 93.3902138 107.572299 94.1073118 107.168661 95.1523063 106.580459 96.0795186 106.123261 96.8379378 105.8236 97.1854327 105.6863 97.4794354 105.589391 97.7052433 105.533492 98.0491785 105.498594 98.2904495 105.489961 98.5805234 105.473856 98.6792896 105.468372 98.7794511 105.46228 98.9117202 105.453866 99.0704447 105.443685 99.1572862 105.43811 99.2246031 105.43388 102.12787 105.251461 103.851223 105.645374 106.050148 107.628917 107.020465 108.504192 107.97442 110.155069 108.761545 112.352268 109.333822 113.949737 109.776902 115.705786 110.097121 117.468137 110.20986 118.088603 110.298506 118.662214 110.365325 119.171272 110.403402 119.461361 110.424781 119.65382 110.432026 119.731368 110.673351 122.314325 113.006311 124.216567 115.642838 123.980145 118.279364 123.743723 120.221058 121.458164 119.979733 118.875207 119.918411 118.218861 119.779311 117.159137 119.536356 115.822016 119.13208 113.597051 118.569096 111.365784 117.808184 109.241757 116.547113 105.721576 114.867152 102.814301 112.544409 100.719068 108.076792 96.6890482 103.87823 95.7293673 98.6109565 96.060323 97.9049966 96.1046802 97.8852262 96.1057778 97.8044604 96.1057778 95.3128765 96.1057778 92.639687 97.1619898 89.3309711 99.0243877 88.4548781 99.5175197 87.5504977 100.062621 86.6241613 100.651412 85.2353058 101.534187 83.8619316 102.472874 82.5579828 103.411231 81.7722734 103.976648 81.1769196 104.421896 80.8303863 104.688918 78.7493987 106.292427 78.3892854 109.245025 80.0260507 111.283731 81.662816 113.322436 84.6766502 113.675233 86.7576378 112.071724zM191.169614 104.688918C190.82308 104.421896 190.227727 103.976648 189.442017 103.411231 188.138068 102.472874 186.764694 101.534187 185.375839 100.651412 184.449502 100.062621 183.545122 99.5175197 182.669029 99.0243877 179.360313 97.1619898 176.687123 96.1057778 174.19554 96.1057778 174.114774 96.1057778 174.095003 96.1046802 173.389044 96.060323 168.12177 95.7293673 163.923208 96.6890482 159.455591 100.719068 157.132848 102.814301 155.452887 105.721576 154.191816 109.241757 153.430904 111.365784 152.86792 113.597051 152.463644 115.822016 152.220689 117.159137 152.081589 118.218861 152.020267 118.875207 151.778942 121.458164 153.720636 123.743723 156.357162 123.980145 158.993689 124.216567 161.326649 122.314325 161.567974 119.731368 161.575219 119.65382 161.596598 119.461361 161.634675 119.171272 161.701494 118.662214 161.79014 118.088603 161.902879 117.468137 162.223098 115.705786 162.666178 113.949737 163.238455 112.352268 164.02558 110.155069 164.979535 108.504192 165.949852 107.628917 168.148777 105.645374 169.87213 105.251461 172.775397 105.43388 172.842714 105.43811 172.929555 105.443685 173.08828 105.453866 173.220549 105.46228 173.32071 105.468372 173.419477 105.473856 173.709551 105.489961 173.950821 105.498594 174.19554 105.498594 174.520565 105.589391 174.814567 105.6863 175.162062 105.8236 175.920481 106.123261 176.847694 106.580459 177.892688 107.168661 178.609786 107.572299 179.368936 108.029865 180.157513 108.531094 181.376718 109.306037 182.601957 110.143475 183.766127 110.981244 184.173447 111.274362 184.542847 111.545709 184.866435 111.787711 185.055311 111.928966 185.183207 112.026142 185.242362 112.071724 187.32335 113.675233 190.337184 113.322436 191.973949 111.283731 193.610715 109.245025 193.250601 106.292427 191.169614 104.688918z" mask="url(#yolko-avatar-b)"/>
    <mask id="yolko-avatar-d" fill="#fff">
      <use xlink:href="#yolko-avatar-c"/>
    </mask>
    <use fill="#000" xlink:href="#yolko-avatar-c"/>
    <path fill="#FF8603" d="M94,196.961882 C94,196.961882 109.018219,182 135.680581,182 C162.342944,182 176,194.799206 176,194.799206 C176,194.799206 169.651985,221 136.134885,221 C102.617784,221 94,196.961882 94,196.961882 Z" mask="url(#yolko-avatar-d)"/>
    <ellipse cx="117.5" cy="193.387" fill="#FFC602" fill-opacity=".455" mask="url(#yolko-avatar-d)" rx="9.5" ry="5.387"/>
    <ellipse cx="61.5" cy="59" fill="#FFE67D" mask="url(#yolko-avatar-d)" rx="11.5" ry="18" transform="rotate(41 61.5 59)"/>
  </g>
</svg>
