<svg xmlns="http://www.w3.org/2000/svg" xmlns:xlink="http://www.w3.org/1999/xlink" width="488" height="632" viewBox="0 0 488 632">
  <defs>
    <polygon id="splash-a" points="0 0 2.19 0 2.19 .691 0 .691"/>
    <polygon id="splash-c" points="0 0 2.19 0 2.19 .642 0 .642"/>
    <polygon id="splash-e" points="0 0 2.19 0 2.19 3.582 0 3.582"/>
    <polygon id="splash-g" points="57 435 705 435 705 0 57 0"/>
  </defs>
  <g fill="none" fill-rule="evenodd" transform="rotate(-92 322.244 315.452)">
    <path fill="#5252ED" d="M1 409.764277L1 408 2.55901632 408C2.65098076 409.154106 2.09481483 409.70607 1 409.764277M26 113.656521C26.3306341 112.322808 27.7079111 113.259415 27.5436889 114.356469 26.7641808 114.356469 27.0488326 113.401812 26 113.656521M50.7613564 266C52.8181163 266.12647 52.6114321 271.38033 51.2125329 272.034115 48.0694208 271.961234 48.6062956 266.585191 50.7613564 266M66.7750033 325.585984C65.8684695 326.755934 63.5588584 326.602107 63.5770802 328.649519 61.7822345 328.071044 61.0920845 328.530358 59.550066 329.035169 55.8988761 327.410239 53.0084457 325.163502 54.3226918 320.635362 55.8328222 315.47675 63.8412961 316.358545 66.7750033 319.859729 67.9138647 321.790146 65.929968 324.138712 66.7750033 325.585984M53.2709129 203.371416C52.5220596 203.235079 53.5073929 202.91228 54.0372833 203.022553 54.7729989 203.150871 53.778907 203.477679 53.2709129 203.371416M66.9486794 300.593974C56.1145204 303.478197 57.4200922 290.94769 64.5021816 292.071549 67.6003058 292.561005 71.1112041 297.642531 66.9486794 300.593974M70.4740741 255.243349C67.0457901 260.501058 62.0126814 252.418708 67.2914725 252.012857 69.2073446 251.847661 70.0548362 253.293633 70.4740741 255.243349M76.7919754 165.028683C73.5108182 167.309145 69.6498213 165.404465 68.6742177 162.374586 68.4395207 161.144167 68.9595357 160.622367 69.0837871 159.726931 65.3332359 153.467471 72.0175006 147.150033 78.4325539 149.503504 80.4527895 150.259364 84.1251085 156.093653 82.8779926 159.726931 84.958053 162.477658 85.5102814 168.14016 80.8462523 168.069299 78.715571 168.030647 78.4946796 166.302048 76.7919754 165.028683M83.6271853 327.498498C84.1627834 329.630534 84.1166111 331.451339 82.8030107 333.10065 82.3597571 333.670181 81.1731303 334.000466 80.7645059 334.603872 79.0861447 337.146648 79.0861447 341.328148 76.2857978 342.064939 73.2661328 341.912499 72.8367308 339.731768 73.044506 336.841769 73.0929868 335.910194 73.9148528 335.973711 74.2657619 334.961682 74.4365992 334.411206 73.7578672 333.697704 73.8525203 333.10065 74.2034294 330.689141 77.5486088 327.422278 78.7398528 327.136454 80.6860131 326.662198 81.7456662 327.583187 83.6271853 327.498498M81 277.108789L81 276.057612C82.4737627 275.819346 83.0835243 276.395991 84.2844445 276.414011 83.662281 277.102782 82.3890162 277.168856 81 277.108789M83.0026898 373.44247C82.9594044 372.80294 83.4540939 372.696685 83.3695845 372.035102 84.204373 371.924838 84.7650212 372.083217 85.1896297 372.385942 85.0762633 373.711113 83.9632119 373.819372 83.0026898 373.44247M98.2395029 219.087294C98.6814522 218.872723 100.931376 219.446286 101.167712 218 106.629449 221.445503 98.8067105 227.292543 94.9071579 224.901322 93.9334514 225.278883 93.5600397 226.161922 92.0049454 225.996868 88.462261 223.036211 95.256936 220.636738 97.412325 219.087294L97.8377308 219.270916 98.2395029 219.087294zM99.2063924 215.473581L98.9913227 216.041294C96.7665462 213.342507 92.3456693 211.620015 93.0816855 207.299806 93.4592523 205.166583 95.6529632 204.403181 96.8812501 202.38608 98.3891276 203.839769 99.485983 202.125878 101.089447 202.760254 104.148216 198.427143 111.64459 202.773157 110.373289 208.441683 109.587089 211.815704 104.229465 213.546798 103.201909 215.664969 102.121782 214.789745 100.238727 215.512289 99.4214621 216.041294L99.2063924 215.473581zM106.743889 332.099379C104.07072 331.001313 107.636495 328.964474 107.569084 326.846927 105.35849 325.472751 103.624417 327.726229 102.634182 328.741463 102.971234 329.554924 102.875929 330.76131 103.877787 330.982197 101.69741 332.137609 100.835023 335.257647 98.1455824 335.100477 92.8271384 334.781889 94.7541446 326.048333 100.186489 325.727621 100.567706 323.327593 101.569563 321.494651 101.839205 318.988426 105.900097 316.703089 105.439847 310.305844 111.662519 310 115.823365 313.289951 112.383113 320.889334 110.026075 323.864944 112.620211 326.651526 110.009804 330.277056 107.569084 331.723445L106.953093 331.532293 106.743889 332.099379zM108.24107 335.406233L108.447355 334.861545C112.125322 335.574476 112.434749 333.488259 115.901742 334.121275 117.00818 334.312651 117.474665 335.242195 119.195269 335.974054 121.56989 336.996131 124.495385 338.335768 124.992344 341.164358 126.019081 347.273692 118.419356 353.462941 110.925118 351.55338 109.302969 351.460846 109.654591 353.139073 108.04885 353.044436 107.903513 352.173777 107.535482 351.498701 107.200269 350.817316 103.405095 351.250542 104.176319 347.591251 101.414914 347.101243 101.881399 345.551301 101.848581 343.917239 101 342.651208 102.073619 341.021352 103.039408 339.28424 103.470731 337.086562 104.752979 336.37994 106.199318 335.820532 107.612839 335.242195L108.24107 335.406233zM105.265534 225.988364C103.296514 220.724855 112.897766 217.878458 113.695402 221.892174 114.474806 225.692305 107.827084 226.140623 105.265534 225.988364"/>
    <path fill="#5252ED" d="M109.453505 198C109.811996 198.298502 109.695664 199.001225 110.284444 199.088288 109.436886 203.87261 103.874339 198.24046 109.453505 198M112.686423 200C114.98308 201.336272 117.984582 200.283452 120.593452 200.743794 124.515035 201.427914 127.348604 203.985373 128.517037 207.122521 127.944647 207.732049 127.348604 208.328789 126.847171 209.01504 119.860224 208.454531 114.935775 206.934974 111 202.992226 111.115897 201.581362 111.969752 200.85888 112.686423 200M125.018019 357.423304C124.926055 356.492609 125.166914 355.902901 126.187281 356.01322 126.487261 356.316097 126.592363 356.803509 126.563898 357.423304L125.018019 357.423304z"/>
    <g transform="translate(156 474)">
      <mask id="splash-b" fill="#fff">
        <use xlink:href="#splash-a"/>
      </mask>
      <path fill="#5252ED" d="M0,0.403221103 C1.16926224,-0.904600634 1.30501928,1.48237462 0,0.403221103" mask="url(#splash-b)"/>
    </g>
    <path fill="#5252ED" d="M164.284444 279.134182C163.891516 279.929389 161.998873 279.25837 161.015522 279.476702L161.015522 278.77764C160.793343 277.375511 163.01514 278.359005 163.914145 278.062555L163.73311 278.707534 164.284444 279.134182zM167.26276 277.369455C166.527045 277.235122 167.516757 276.916334 168.02913 277.020592 168.780173 277.150914 167.788271 277.473713 167.26276 277.369455"/>
    <g transform="translate(171 474)">
      <mask id="splash-d" fill="#fff">
        <use xlink:href="#splash-c"/>
      </mask>
      <path fill="#5252ED" d="M1.13686838e-13,0.354249227 C0.928402975,-0.803132894 1.85899558,1.33110381 1.13686838e-13,0.354249227" mask="url(#splash-d)"/>
    </g>
    <path fill="#5252ED" d="M171 267.711057C171.369435 267.128191 172.564911 267.324482 173.18963 267 173.162648 267.899337 171.965097 267.705048 171 267.711057M171 266.712716C171.340378 266.101808 172.15189 265.937564 173.18963 266.019686 172.751704 266.518428 171.938116 266.676663 171 266.712716M181.153887 182.069424C186.028888 181.532052 187.628682 184.191117 188.663704 187.387553 187.597962 188.249201 186.043066 188.629068 184.485807 189.020515 183.034886 187.019268 180.326814 185.092141 181.153887 182.069424M181.354033 276.377204C180.154658 275.960585 182.347199 275.980615 182.83747 276.018671 184.032636 276.427279 181.842199 276.419267 181.354033 276.377204M182.023682 264.701192C181.756547 263.749574 183.843264 264.955624 183.56956 264 184.828598 264.572974 182.205421 265.326254 182.023682 264.701192M198.078883 188.008792C197.015151 187.44128 195.711223 187.086585 196.05665 185 197.218747 185.618882 198.865815 185.748529 199.284444 187.152632L198.691958 187.573374 198.078883 188.008792zM235.941777 344C238.784404 344.823337 244.681463 347.75592 240.2648 351.016067 238.523551 350.77482 235.10348 350.141825 232.780329 348.300384 232.381247 347.961754 232.04682 347.005621 232 345.963171 233.221772 345.210659 234.55502 344.579877 235.941777 344M249 328.02393C249.751692 326.046602 249.911207 323.448099 252.06795 323 252.907048 325.157516 251.18515 327.782099 249 328.02393M252.069721 428.758899C251.739087 427.637777 252.682817 427.671871 252.847039 427 253.164536 427.30886 253.915578 427.212592 254.007543 427.707972 254.152058 428.786978 252.744127 428.442017 252.069721 428.758899M320.465186 288.072477C319.342731 291.148616 315.441431 291.975903 312.923621 293.733086 310.403438 295.477444 308.464653 297.0743 304.971519 298.624127 303.376827 299.338116 301.820103 299.722901 300.372541 300.505296 297.963891 301.832803 296.665831 304.188541 294.095814 305.032929 293.073028 304.823435 291.936335 304.718688 292.002781 303.523718 293.170323 300.982002 296.226816 300.697689 298.694792 299.378732 303.032734 297.0743 305.491217 293.48939 310.825842 292.217462 313.97963 291.003253 316.646942 287.450408 320.465186 288.072477M296.023602 283.026805C297.359276 282.783647 297.407448 284.26068 296.8053 284.797236 295.951344 284.753025 295.964482 283.902977 296.023602 283.026805M307 305.008792C307.125609 303.206168 308.404961 302.340832 310.284444 302 310.22164 303.825347 309.17955 304.874353 307 305.008792M308 212.270617C311.351474 211.410425 315.584261 212.700712 316.758519 214.731719 313.580825 215.466466 308.645469 214.731719 308 212.270617M318.284444 144C317.182641 148.387482 318.622207 155.075093 315 157.149678 315.223622 152.374941 314.61798 148.038526 317.042878 144L317.660167 144.1915 318.284444 144zM315.00293 72.396342C314.905726 71.0520343 317.252493 70.631312 318.282386 71.3405295 318.363389 72.6968579 316.032823 73.107563 315.00293 72.396342M331 281.473493L331 280.41692C331.23867 280.212422 332.843668 279.590909 332.933443 280.41692 333.0692 281.489532 331.676596 281.146697 331 281.473493M333 277.890077C334.313691 276.18842 335.39389 274.259473 338.398635 274 339.044867 275.836422 335.39389 278.620221 333 277.890077M339 97.7391526C339.089775 97.1156923 339.643751 96.9212369 340.543689 97.0274857L340.543689 98.0919791C339.731336 98.2403265 339.510184 97.8474062 339 97.7391526M343.446869 277.775043C342.5535 277.684787 343.241044 276.222633 343.446869 276L344.994937 276 344.994937 277.410006C344.381841 277.446109 343.538833 277.253562 343.446869 277.775043M367 266.898401C367.482426 265.958683 368.193587 265.822434 369.18963 266.185097 368.990005 267.02864 367.781862 267.653783 367 266.898401M378.284444 305.930494C378.209798 306.922602 375.655823 307.21306 375 306.859611 375.546519 305.995234 375.765126 304.892892 377.809906 305.008375L377.569971 305.570045 378.284444 305.930494zM402 92.3944401L402 91.3387654C403.459753 91.4549497 404.226923 90.5214688 405.284444 91.3387654 404.373431 91.8255376 403.076168 93.1075715 402 92.3944401M412.002977 35.0129878C411.962007 33.1266335 412.326638 31.70708 414.17847 32.0517945 414.291137 33.9908135 413.549585 34.9722923 412.002977 35.0129878M414.433869 254.045292C415.689502 253.782091 415.348725 254.75124 416.263581 254.767563 416.696105 259.350109 410.213475 255.763236 414.433869 254.045292M417 5.74173861L417 5.02750377C417.812353 4.85496389 417.722578 5.52907318 417.76637 6.07678698 417.453253 6.01057982 417.376616 5.74173861 417 5.74173861M422 168.263901C422.464608 166.149552 425.218517 166.335202 427.474074 166 427.474074 168.787332 423.780567 169.854821 422 168.263901M435.398134 265.281662C434.782848 265.376011 434.857296 263.36255 435.785699 264.207682 435.636804 264.077198 435.380617 265.281662 435.398134 265.281662M448 295.081346L448 294.016176C448.615286 293.911866 448.663458 294.345155 449.158314 294.371233L449.158314 295.081346 448 295.081346zM460.375418 351.255495C463.355577 353.386916 460.541389 357.625233 458.217793 357.961891 451.613118 358.84924 453.092214 349.340338 460.375418 351.255495M455.447754 257.41777C454.497455 257.355516 455.338273 256.216883 455.447754 256 456.59731 256.228932 455.071138 256.759089 455.447754 257.41777M465.034516 55C465.932265 55.1163262 466.84534 55.218613 466.593533 56.4079482 465.376099 56.55837 464.854967 56.1050989 465.034516 55M480 425.401829C481.167073 424.098019 481.285313 426.478976 480 425.401829M481.44779 195.423287C479.85593 195.023803 483.188546 194.277029 481.042709 194.357327 481.119346 193.945799 481.760907 194.054201 482.209782 194L482.209782 195.065959C481.760907 195.003728 481.520048 195.14425 481.44779 195.423287M482.035891 48.6381483C481.849154 46.400176 482.380836 44.7956748 483.87214 44 486.693946 44.7036132 484.616495 48.239215 483.40789 49.02393L482.871021 48.4452575 482.035891 48.6381483zM483 296.065166L483 295 484.140797 295C484.215244 295.772296 483.82549 296.127351 483 296.065166M489.453497 240.800043C488.391527 240.655667 489.422843 239.685134 490.222057 240.104228 490.399418 242.187664 489.679029 239.933783 489.453497 240.800043M497.541499 101.307699C497.436397 101.786703 496.584631 101.602316 496 101.666451 496.12043 100.844728 497.046643 100.854749 497.541499 101.307699"/>
    <g transform="translate(498)">
      <mask id="splash-f" fill="#fff">
        <use xlink:href="#splash-e"/>
      </mask>
      <path fill="#5252ED" d="M1.67557522,0.0412317389 C2.4419456,1.37670137 1.56828337,2.58546229 0.896067067,3.58505326 C-0.662949249,3.34169208 -0.0498529451,-0.43342313 1.67557522,0.0412317389" mask="url(#splash-f)"/>
    </g>
    <path fill="#5252ED" d="M513 13.1088591L513 12.0571069C513.647405 12.7121983 513.931933 11.766623 515.18963 12.0571069 514.554596 12.4958378 514.228832 13.245086 513 13.1088591M514.492274 7.03501142C513.690521 5.79408792 513.834376 2.88433628 515.173188 2 516.910957 2.82931997 516.08427 5.39267261 515.173188 6.66416072L514.83369 6.85162371 514.492274 7.03501142z"/>
    <mask id="splash-h" fill="#fff">
      <use xlink:href="#splash-g"/>
    </mask>
    <polygon fill="#5252ED" points="514 374.067 515.154 374.067 515.154 373 514 373" mask="url(#splash-h)"/>
    <path fill="#5252ED" d="M518.647024 117.023389C517.690155 115.898749 517.582864 113.026975 519.798769 113 520.538864 114.301013 519.787821 115.118556 519.798769 116.662343L519.08276 116.475594 518.647024 117.023389zM525 325.798614L525 325.016782C525.410794 322.409196 528.272025 320.745583 530.041785 318.748802 531.661079 316.954143 532.967501 313.522524 535.948148 314.055591 535.145666 318.393424 530.481239 319.177477 530.462132 324.241614 528.847615 325.407698 527.667775 326.556014 525 325.798614M531.284444 426C531.190262 427.418157 529.807129 427.829124 529.403491 429.008792 527.431046 428.640412 527.490246 426.187384 529.882475 426L530.579423 426.187384 531.284444 426zM583.210978 104.685932C583.062083 105.580451 581.708892 104.716016 582.057043 104L583.210978 104C582.974498 104.314887 582.744586 104.61774 583.210978 104.685932" mask="url(#splash-h)"/>
    <path fill="#5252ED" d="M583 104.714652C583.105102 104.105391 583.672216 103.921009 584.561206 104.029233 584.305019 104.498204 583.735716 104.680581 583 104.714652M595 115.28986C596.54584 113.96037 600.773619 115.069703 600.757323 112.282477 600.328958 111.649794 599.001956 111.863538 598.287238 111.51086 598.014854 109.642735 599.416353 109.302881 599.928529 108.129425 599.528101 106.7465 597.553895 106.791386 597.88681 104.733028 599.050846 104.688142 600.547796 104.951047 601.155423 104.36325 601.348653 102.433139 599.798157 102.078324 599.511804 100.588526 600.48261 100.229436 600.738698 99.199188 602.382317 99.4620935 602.703591 98.6242158 603.243704 97.978708 603.211111 96.8180764 608.477211 95.9374498 609.562093 88.7257169 615.521958 90.7990367 617.33087 90.6622403 617.836062 87.8279908 620.040746 89.2750397 619.321372 87.1162222 622.880995 90.1920028 624.15445 88.5354844 625.141553 88.1528821 623.341953 86.8533167 625.386 87.013625 625.032133 88.8496886 626.338182 89.1574804 627.420736 89.6555046 628.829219 89.9355096 627.965505 88.1250954 629.48108 88.5354844 630.086379 89.2387032 630.086379 90.4912449 631.127027 90.7990367 632.291063 91.1089659 632.195612 90.2561261 633.16409 90.410022L633.389913 90.9871316 633.995212 90.7990367 633.995212 91.1581271C634.472467 92.3764697 636.38847 92.4897541 637.715472 91.9169194 637.633989 93.453741 638.073995 96.1725686 641.393826 95.6830941 639.834018 97.5619066 643.246972 98.1710779 641.794254 99.8382835 642.41585 100.89418 643.598511 101.441366 643.85227 102.852078 643.20041 102.740931 643.135224 103.202619 642.625376 103.228268 643.936081 104.418824 642.639345 107.990491 644.266667 108.892492L644.057141 109.247308 643.85227 109.634185C643.85227 110.010375 643.342423 109.93129 643.039773 110.010375 641.317 110.816191 642.797654 114.573816 640.995726 115.28986 640.902603 115.612613 641.140066 115.646813 641.393826 115.681012L641.184299 116.234609 641.794254 116.422704C640.711701 116.916454 641.247157 118.940612 640.56736 119.823376 639.32417 120.092694 639.7828 118.790991 638.523313 119.066721L638.523313 120.188879 637.776002 120.013609 637.277794 120.569344C634.700618 120.678354 635.524756 125.348667 636.453656 126.609758 635.750579 126.229293 632.367889 127.19328 632.367889 124.703159 628.189 125.158434 626.14728 129.55088 622.096434 128.851936 620.839275 128.571931 621.300233 129.890733 620.040746 129.610728 618.28538 129.721875 618.685808 127.838788 617.170233 127.727641 616.930442 128.651016 616.879224 130.307535 615.521958 131.126175L615.333384 130.564028 614.716445 130.74571C614.139083 129.493169 613.629235 128.22139 613.051873 126.981673 611.249945 126.718768 611.238305 128.069632 609.785588 128.108106 609.385159 126.530673 608.765892 126.009137 606.912746 126.609758 606.130514 126.041198 606.849888 124.126049 606.100249 123.587414L605.667228 123.587414 605.189973 123.023129 604.426365 123.202674C604.472926 121.674402 602.924758 121.588904 601.155423 121.704326 602.526658 119.214205 601.0623 117.382416 599.097407 116.035827 597.456116 115.918268 596.818225 116.717672 595 116.422704L595.20487 115.854145 595 115.28986zM599 90.707778C599.030655 89.6638892 601.296922 89.7680777 600.920305 91.0644234 600.022557 91.1726191 599.453253 91.0043146 599 90.707778M604 132.094545C604.420409 131.769564 604.12043 130.798635 605.153935 131.037355 605.230572 131.807679 604.840818 132.156732 604 132.094545M605.959889 347.342894C606.047474 348.420562 605.495687 348.940555 604.41401 349.006496 603.870982 348.571284 603.737415 347.00942 604.788437 347L605.239501 347.512457 605.959889 347.342894zM643 39.701842C643.091964 39.3288631 643.76637 39.4752473 643.76637 39 644.843668 39.1524 643.779508 40.1129209 643 39.701842M29.0009435 416C29.346905 416.22049 29.6775391 416.42695 29.7673139 416 31.6876191 416.42695 28.9418235 417.296885 29.0009435 416M64.8237514 203C67.8465198 203.142451 73.9014443 204.494609 77.2668558 205.385496L77.0579844 205.989219 77.6705174 206.192721C77.7479641 206.520585 77.5062365 206.563547 77.2668558 206.595203 77.6188863 207.178575 78.2947848 207.443128 79.3274076 207.377555 73.8615475 208.951304 69.468207 207.296154 64.4224366 205.385496L64.6289611 204.788557 64 204.580533C64.0821404 204.123783 64.7603859 204.254929 65.2579223 204.19614 65.1429257 203.759741 64.4224366 203.922543 64.4224366 203.393437L64.8237514 203.393437 64.8237514 203zM350.429473 249.820301C349.511068 249.744879 349.111762 250.130612 349.175181 250.960261 350.088888 251.022754 350.511683 250.647796 350.429473 249.820301zM218.2826 322.034267C219.316098 323.868116 220.906277 325.202019 220.779438 328.102559 222.888715 327.460389 222.595107 325.548964 224.077238 324.309877 226.651588 322.159254 231.734522 321.814464 232.380458 317.858007 227.518318 317.954979 220.650251 317.909725 218.2826 322.034267zM214.966009 253.24018C215.710598 252.891081 216.260231 252.380362 216.626653 251.718797 214.489191 248.822567 208.969369 249.910808 204.18709 249.05961 201.272154 248.525186 198.152868 249.253554 194.676555 249.443188 186.986387 249.844006 177.764762 248.682497 171.474514 250.960261 168.094505 249.865555 162.492473 251.695093 156.977349 252.10453 146.4662 252.839363 136.105378 252.927715 125.901929 254.765873 124.776825 257.136299 123.165507 259.077894 119.287539 258.929204 118.676835 257.860357 118.547648 256.336819 117.612802 255.5201 115.104219 254.899479 112.208075 256.959595 111.00076 255.134367 110.93969 252.654038 114.573377 253.436279 115.975646 253.24018 119.964011 252.647574 126.014675 251.695093 130.893257 251.341684 135.393673 250.99474 138.726706 251.037839 144.133782 250.576683 149.458648 250.117682 155.253286 248.572595 160.291591 248.678187 161.235833 248.697581 162.173028 249.163047 163.187736 249.05961 166.758003 248.678187 169.994732 247.171888 173.548558 247.163269 180.999142 247.12879 188.320539 247.628734 194.258458 246.010379 196.287873 244.734659 200.468844 245.044969 201.290945 243.732615 202.322095 245.029885 204.555861 243.252065 207.93822 242.978388 209.561282 242.844783 211.400439 243.521432 212.476217 243.346882 214.517377 243.038727 216.123997 241.375118 217.465196 241.088512 217.545058 239.745989 216.060578 239.825721 215.806901 238.791353 213.488576 239.931313 212.957734 240.355835 210.416267 241.088512L210.416267 238.42286C212.558427 238.093155 214.18149 237.308759 215.384106 236.14294 215.583759 233.380316 214.453958 231.434411 212.891966 230.815945 208.760321 229.160957 203.881738 233.882415 200.487635 233.854401 200.100073 233.179907 198.942085 233.227316 198.812898 232.335173 200.100073 228.811858 203.449548 231.772736 205.859478 229.301027 205.622243 228.428279 205.201797 229.762183 204.621629 228.915294 204.992749 227.439165 206.904721 228.73859 207.501332 229.301027 208.304642 228.255885 210.655851 228.622223 211.252461 227.402531 209.107952 224.021441 201.406039 225.786331 198.394801 223.209031 197.575048 224.135653 196.785831 222.778045 196.33485 222.838383 193.24375 223.288764 192.696466 227.527517 189.28827 228.154603 187.312878 232.393357 179.648548 234.959882 175.206853 231.578792 174.321333 232.621779 171.361769 233.337217 170.234316 231.964525 169.898429 229.880704 171.617795 229.682451 171.474514 227.77318 170.943672 225.603162 169.186725 224.558019 167.756269 223.209031 163.878301 223.321088 162.800174 226.788375 158.630947 225.491106 156.37839 221.133831 163.105526 221.345014 166.501977 219.791307 168.157924 219.056475 168.512602 217.724726 169.81387 217.894966 171.13393 216.817499 172.148637 215.474976 173.966655 214.854355 174.175704 213.651903 174.692453 212.729591 175.206853 211.80297 172.148637 208.848556 168.961234 207.930555 165.278221 206.874638 163.958162 206.691468 163.5706 207.76678 163.187736 206.499679L163.394435 205.924312 162.781383 206.105327 162.781383 205.34679 162.99278 204.961057 162.781383 204.603338C163.991046 204.693845 164.054465 203.72628 165.278221 203.834027 165.534247 204.21976 166.22951 204.21976 166.081531 204.961057 166.790887 203.631463 167.580104 204.948127 168.573672 204.961057 170.154455 205.01924 172.230847 204.135718 173.13281 204.961057 176.282631 203.301758 180.679697 202.784574 183.075535 200.409838 185.342185 201.052008 187.146109 200.3495 188.886615 201.929066 189.079221 200.312866 190.124464 201.48515 191.782759 203.07549 193.664196 204.87486 194.277249 206.848778 193.84271 211.053053 198.826991 214.6992 209.387466 213.268324 212.476217 218.647038 213.213759 217.091176 212.814453 215.977075 215.384106 216.750696 214.933125 214.123833 213.312412 212.565816 212.072213 210.678095 207.614077 209.115768 202.773076 209.38298 200.487635 205.34679 199.503463 205.368339 199.263879 204.696 197.976704 204.961057 196.158686 201.972165 191.651223 201.424812 189.28827 198.89492 187.063899 198.89492 185.267021 198.535046 184.729132 196.992114 183.754355 196.983494 183.510074 197.649369 182.255782 197.377847 179.613315 194.332926 174.511591 193.563615 172.310709 190.150201 171.072859 189.887299 169.769242 189.686891 169.398122 188.633128 162.962245 188.221536 159.986239 186.256237 155.734802 184.454713 150.536775 184.515051 145.583029 184.381445 142.893584 182.176948 138.613961 182.036878 137.087201 179.39062 133.784704 178.367026 132.269689 175.347965 132.016012 171.208338 135.447697 170.01235 141.138985 169.846421 144.986418 171.378578 148.688222 173.035722 151.18506 176.537488 154.785863 176.688333 159.887587 177.597715 161.576418 178.507097 162.717964 179.942283 164.437329 180.649101 166.870748 181.646835 169.109212 181.095172 171.892611 181.416257 175.014247 181.765356 178.410698 183.129429 181.840034 183.308288 182.847695 183.355697 183.815426 183.161753 184.729132 183.308288 186.119657 183.532401 187.531322 184.657276 188.886615 184.825361 190.302977 185.019305 193.873245 184.821051 195.07821 186.353209 195.641937 186.234688 195.435237 185.400728 195.498656 184.825361 197.363651 188.633128 201.483552 187.881056 205.859478 189.387355 206.744999 189.69551 206.507764 190.33337 207.102025 190.531624 208.999904 191.180259 211.731629 190.84409 212.891966 192.813699 218.0759 193.395531 221.439468 196.263747 225.32918 198.509187 227.584086 199.812922 230.144344 201.517474 233.183769 202.316954 236.000052 203.036702 238.84687 202.202742 241.890993 202.683293 245.188793 203.222026 247.121905 205.49548 250.175423 206.874638 250.741498 207.1203 251.657554 206.661299 252.251815 206.874638 254.351696 207.628864 256.456275 209.938953 259.704749 210.292362 260.944947 209.52736 260.590269 207.312089 262.614987 207.249596 262.925036 208.232246 263.016642 209.406684 263.857534 209.908784 265.499387 209.52736 264.743054 206.934976 265.518178 205.732523 267.622756 204.249929 269.1824 205.01924 270.890021 206.499679 271.225908 208.07709 270.342736 209.665276 270.890021 210.292362 272.752667 211.753406 275.280041 212.60245 278.35235 212.958014 278.772796 210.645771 276.921894 210.473376 276.684659 208.773134 276.954778 206.350989 279.705293 206.226003 280.830397 204.603338 277.823856 199.086709 270.131339 196.334859 267.989179 189.387355 263.82465 187.646169 261.713024 184.000022 258.882648 181.024059 258.126315 179.821606 255.857316 180.002621 255.970061 177.981293 255.908991 176.918911 257.160933 177.039588 257.644798 176.470685 260.782876 177.7658 262.452915 180.412058 265.518178 181.79337 265.642667 182.687668 266.013787 183.355697 266.333232 184.071135 268.310972 186.833759 271.146047 188.781819 272.141963 192.43012 274.378078 195.309111 277.40341 197.485594 279.996552 200.03488 281.941408 199.666386 282.505134 200.517585 283.728891 200.784796 290.451328 193.520517 270.890021 194.822096 274.620011 187.868127 281.286076 189.492947 284.339594 194.408349 291.179475 195.860774 294.287017 199.119033 299.564906 200.325796 302.782844 203.448294 303.12108 203.383646 303.198592 203.07549 303.61669 203.07549L304.102904 203.642238 304.87333 203.448294C304.535094 206.661299 307.687264 206.691468 309.007324 208.385246 313.935232 207.051342 317.810852 206.848778 321.848542 208.773134 323.281347 207.930555 324.234984 206.661299 324.345381 204.603338 327.257967 202.713462 328.784726 199.552175 328.88103 195.093618 329.898086 194.253194 330.283299 192.822318 330.959771 191.669429L331.441287 192.244796 332.19762 192.050852C332.726114 197.998468 328.737749 199.780598 328.88103 205.34679 329.815876 205.101128 330.703745 203.959013 331.781872 204.961057 332.519414 207.014708 328.913914 208.083555 329.299127 211.053053 331.974478 214.309157 335.608165 216.653724 337.992258 220.174885 338.776777 219.636152 339.199572 218.720305 340.484399 218.647038L340.338769 219.334461 340.900147 219.791307C340.775657 220.687759 339.615321 220.651126 339.244201 221.31269 341.689364 224.629132 345.503913 226.717262 347.115231 230.815945 347.934983 231.32451 349.097669 231.544313 350.025469 231.964525 350.006678 235.382249 349.96205 238.849536 352.503516 239.939933 350.800593 241.80395 350.173447 246.010379 351.667322 248.678187 357.250563 246.708578 360.26415 242.364232 362.852594 237.657858 362.432148 235.752897 359.005161 236.388603 359.550097 234.612938 359.425607 234.612938 362.418055 233.41264 362.450939 234.992206 363.430414 234.132388 364.734031 233.535471 366.582584 233.477288 366.568491 232.582991 367.308382 232.363187 367.005379 231.188749L367.005379 230.430212 367.005379 229.682451 367.825131 229.682451 368.031831 230.242733 368.663674 230.053099 368.663674 230.430212C372.506409 230.744833 371.992009 226.529783 376.11191 228.154603 376.353842 223.844737 369.030096 225.098908 366.164487 224.353301 364.508541 223.920159 363.413972 223.24782 362.450939 222.071227 363.702882 218.455249 367.179195 221.853578 369.481078 222.45696 372.569829 223.269369 375.677371 223.006468 377.770205 223.209031 377.899392 224.006357 379.313406 223.57968 379.4285 224.353301 382.611206 223.971878 383.853753 221.373028 386.876736 222.838383 387.583743 222.206987 387.391136 220.769647 388.135725 220.174885 390.644308 220.263238 391.947925 221.49155 394.346111 221.689803 395.952732 221.659634 395.971523 220.153336 396.819461 219.418504 398.865318 219.939998 400.053841 221.260972 401.791998 222.071227 403.386874 222.383692 402.292305 220.250308 403.851948 220.558463 405.752176 221.502324 405.879015 223.827497 408.843276 222.838383 409.726448 224.797217 411.032414 226.400487 413.815813 226.64184 415.744227 226.680629 413.362483 227.182728 413.815813 228.154603 415.488202 230.609072 416.326745 232.658413 415.875764 235.757207 415.69725 236.80666 417.421314 236.106306 417.548152 236.888547 416.629748 238.631888 414.652007 239.983031 415.875764 242.59912 414.445308 243.930869 413.230947 245.478111 412.97727 247.92396 411.706537 248.525186 410.224406 248.936779 409.242582 249.820301 408.714089 251.606741 409.402305 254.515901 407.586636 255.134367 405.578361 255.209789 406.15618 252.919095 404.272394 252.856602 402.9218 255.66448 401.099084 258.037062 397.658004 258.929204 397.075487 258.323668 396.194664 258.000428 396.420155 256.664369 391.447618 257.550047 388.66187 260.450587 383.980591 261.607786 382.160225 259.898924 384.222524 258.946443 384.802692 257.416441 381.293495 255.970481 381.518986 261.232827 378.587608 261.607786L378.395002 261.032419 377.770205 261.209123C372.973833 260.463516 370.751811 265.092313 367.825131 267.296809L367.341266 266.732217 366.582584 266.915386C366.021207 263.581705 368.207995 264.029931 370.298481 261.974124 371.959125 260.35577 371.61854 257.912075 374.871712 258.185752 375.339135 257.209567 375.886419 256.32389 376.530007 255.5201 376.304516 254.966282 375.919303 254.558999 375.693813 253.996562 373.619769 253.113039 371.879264 251.925671 368.663674 252.10453 366.486281 250.751232 365.281316 250.84174 362.450939 250.188795 362.124447 249.333286 362.061028 248.249355 361.614745 247.525297 358.035082 248.357102 355.077867 249.591878 352.503516 251.341684 351.653229 251.914896 351.202248 253.518167 349.59093 253.24018L349.799978 252.662658 349.175181 252.470869C347.563863 252.647574 347.951425 254.634422 347.535677 255.903678 344.249622 255.431747 344.313041 258.017667 342.962446 259.312782 337.106738 261.905167 332.098968 264.014846 324.345381 265.402623 323.6877 267.115795 324.279612 268.007937 324.747036 269.581039 324.296055 272.082916 322.766947 273.597834 321.848542 275.664415 320.385202 276.004894 320.483854 275.582528 319.354053 276.422952 318.839652 277.213812 318.344043 278.026222 317.700455 278.702871 314.109048 280.243648 310.357918 282.232651 306.094737 282.499863 303.860971 282.646399 301.591972 282.142144 298.644153 283.267019 297.676422 283.624738 296.598295 284.279838 295.329911 284.781937 293.206541 285.618051 289.363806 286.406757 288.280982 288.956043 278.725818 291.660484 268.602231 291.770386 262.196889 296.94438 264.094768 299.125173 269.46896 298.110199 271.308118 300.353485 271.371537 304.870225 268.538812 306.695453 265.929228 308.73402 265.581597 309.789937 266.509397 309.705895 266.333232 310.623896 264.42126 311.649644 261.684838 313.382211 258.464551 313.658042 257.708218 313.729155 256.533788 313.074055 255.970061 313.278774 254.828515 313.755014 253.120894 315.506975 253.073917 316.32154 252.914194 319.534545 257.644798 320.269377 260.956691 320.885688 261.424114 323.71727 259.657772 324.512441 259.284303 326.589796 254.039298 327.964644 250.144888 335.034979 254.330557 339.512931 252.688703 343.598684 246.49241 343.480163 246.041429 348.632608 240.99138 351.599951 235.791003 354.425068 233.183769 359.650781 232.410994 359.816711 232.152619 360.461036 231.123818 360.411473 229.660478 362.934899 228.145464 365.445397 225.733184 367.253386 224.107773 368.475233 221.470003 368.768304 220.361341 370.6668 219.090608 370.390968 219.135236 371.321899 217.880945 371.050378 211.865514 374.791342 207.48489 380.017055 201.290945 383.587779 200.276238 387.093856 195.933195 387.522687 194.258458 390.434002 188.386308 391.79592 187.547764 399.670046 180.17939 398.411565 178.328488 395.254588 181.177656 394.595178 183.075535 393.086725 184.65162 391.847638 185.440837 390.039649 185.985772 389.67762 187.038062 388.942788 189.335247 388.634633 190.124464 388.143308 194.307784 385.634966 195.757031 381.850903 200.069538 380.170055 201.75602 377.545347 205.859478 377.131599 206.681579 373.713875 209.098556 373.511312 209.645841 371.604196 211.654116 371.050378 217.965504 365.693214 222.999111 358.875005 230.722163 355.849479 232.429785 353.724715 234.391083 351.263781 236.514452 348.632608 237.129854 347.858987 237.655998 346.865563 238.172748 346.348379 239.5069 344.960602 241.813481 344.525305 242.710745 342.939274 245.23577 338.545366 243.375473 333.242075 243.145285 328.102559 237.803977 325.195554 227.710924 327.173783 225.32918 333.048131 219.875127 333.785118 213.425157 345.010165 209.580073 345.208419 207.693938 345.303236 205.07261 343.72798 205.441381 341.402807 205.779617 339.293127 208.386852 339.271578 210.416267 337.993703 211.153809 334.479007 214.09928 333.017962 216.206207 330.766057 212.638289 331.201353 210.674642 328.044376 207.501332 326.95829 201.819439 327.818108 200.776545 334.037245 196.752947 337.226546 193.983641 339.403029 191.197893 339.896509 188.449727 342.169963 187.759162 347.160789 184.120777 347.333183 179.761293 350.526794 176.282631 353.06746 175.178667 355.633986 170.234316 356.230902 168.108598 358.722005 166.790887 361.937165 162.781383 362.691392 161.029133 366.419426 157.442424 368.427824 155.734802 372.198957 154.945585 372.354112 154.687211 373.019987 153.674852 372.953184 153.000729 374.502581 152.19507 375.890358 150.362959 376.366598 147.753375 379.441688 146.275942 383.538216 142.059738 385.115627 144.460274 379.579603 146.32292 373.57596 151.18506 370.287532 151.10285 368.397655 153.174545 367.074526 154.078856 365.354889 154.558023 364.400254 154.367766 362.934899 154.900957 361.930701 155.443544 360.915727 157.118281 359.611993 158.231641 358.133708 159.194673 356.836439 159.871145 355.009055 160.693246 353.938053 161.193553 353.343292 162.351541 353.009277 162.781383 352.423135 163.19948 351.841303 162.851849 351.104316 163.187736 350.526794 163.878301 349.399764 165.456735 348.789918 166.081531 347.858987 166.400976 347.404296 166.053345 346.402252 166.501977 345.581222 167.030471 344.605038 168.594812 344.122333 168.573672 342.169963 168.526695 339.129353 165.374524 338.506577 164.007488 336.082277 161.094901 336.103826 157.92394 336.347334 156.575694 334.942317 156.185783 331.173339 159.643306 329.343801 158.231641 325.82695 160.2728 320.749927 163.878301 317.084386 167.756269 313.658042L167.756269 310.244628C170.765159 308.701696 174.417636 307.744905 175.206853 304.172026 178.11944 305.066324 179.838805 304.939182 181.419588 303.027757 183.573493 304.36597 185.198904 303.344532 187.211877 302.644179 187.886 303.55787 187.531322 305.389564 188.886615 305.686944 189.610064 305.727888 189.753344 305.219324 190.52377 305.307676 190.704633 302.364037 188.661124 301.454655 187.629975 299.607878 187.038062 295.757012 188.738637 294.04384 188.449727 290.486046L188.675217 289.910678 188.050421 289.718889C189.9483 287.563956 193.133354 284.958642 197.575048 284.398359 199.346089 284.182866 201.450668 283.185132 203.785435 283.267019 204.443116 283.282104 206.037992 283.857471 206.681579 283.650597 209.305256 282.75199 208.854275 279.950577 209.995821 276.80222 210.449151 275.567443 212.584265 272.944889 212.891966 271.47738 213.133898 270.408533 212.71815 268.607009 212.891966 267.682542 212.217843 266.842119 210.655851 267.742881 211.654116 266.15685L212.283611 266.346484 212.072213 265.771117C214.489191 265.906878 218.378903 264.279903 217.465196 261.607786 216.934354 260.079938 215.259617 257.364722 212.891966 257.789244 213.425157 256.397157 215.999508 256.838919 215.806901 254.765873 215.447526 253.645308 214.761658 255.252888 213.732858 254.765873 213.876138 254.265928 214.453958 254.164647 214.566703 253.615139L215.177407 253.809083 214.966009 253.24018zM306.859972 183.441128L306.049257 183.631744C305.876819 181.421039 306.085289 179.547746 307.848271 179L308.399043 179.576229 309.225199 179.383422C309.395063 181.591936 309.315279 183.592306 307.390153 184.02393L306.859972 183.441128zM112.493427 132.037465C110.649759 131.893073 114.731229 132.225975 112.493427 132.037465M203.379259 412.433638C202.109987 413.490109 201.108348 414.73922 200.114658 416.002524 199.566142 416.067413 199.279959 415.927497 199.166016 415.639552 198.333967 413.932165 200.816865 411.991583 202.454466 411L202.928787 411.709722 203.379259 412.433638zM226.110846 411.770388C225.705764 411.330303 226.544392 410.75357 226.50279 410 228.090271 410.436066 226.351705 411.036913 226.110846 411.770388" mask="url(#splash-h)"/>
    <path fill="#5252ED" d="M244 328.359051C244.074447 327.959883 244.391944 328.166487 244.391944 328.359051 244.716009 328.425245 244.748853 328.222652 244.777319 328 245.149556 328.022065 245.06197 328.441292 245.167073 328.716096 244.82549 328.649903 244.790456 328.854502 244.777319 329.071136 244.359099 328.97686 244.507994 328.367075 244 328.359051M276.073013 186.000585C276.839384 186.820471 276.265701 188.045421 276.073013 189.019036 275.427072 188.399241 274.02133 185.956662 276.073013 186.000585M299.247563 326.765488C299.534404 325.511588 298.288505 326.625051 299.650455 326.059291 300.373032 325.758355 299.216908 326.735394 299.247563 326.059291 299.216908 326.556839 299.996416 326.91395 300.022692 326.765488 299.935106 327.224917 299.173115 327.114574 299.247563 326.765488M316.474074 187.356364C315.109517 190.323299 314.317899 193.843427 311.081449 195.036831 310.495389 191.757041 313.178581 188.524905 315.710884 187L315.903322 187.555264 316.474074 187.356364zM334.23613 66.9497251C334.361801 66.0626734 334.173295 65.4669573 333.838172 65.0299538 332.639642 65.4560865 329.914442 65.8278656 329.309359 64.6473041 328.767111 64.7929719 328.655404 65.3212895 328.080575 65.4256485L327.78967 64.7690563 327.24975 64.2624802C328.685658 60.9795191 325.369338 59.9598445 321.508444 60.4294601 321.20823 59.0640962 322.788427 57.7943947 321.098849 57.3573913 319.772321 56.8812532 320.796308 58.601003 319.455816 58.1248649L319.455816 57.3573913 318.641282 57.3573913C318.099034 54.561439 319.790939 53.8396224 319.455816 51.2241243 319.281273 50.3631623 317.289154 51.2241243 317.000576 50.4544765 316.954031 48.1085725 319.742067 48.4151272 320.286642 46.6258047 320.235442 45.6452647 318.755316 46.006173 318.227033 45.4800296 317.940782 44.0516154 319.679232 44.521231 320.286642 43.9472564 319.888683 43.0167217 318.627318 42.9254076 319.060185 41.2600114 322.818681 39.3358919 326.837828 37.1769645 326.439869 32.4438479 329.262814 32.9917328 334.108132 32.9330308 335.462587 30.9067264L335.462587 30.1392527 336.214286 30.3327517 336.705334 29.7674737C338.571782 31.4915718 342.495512 30.24796 343.673096 29 344.804136 29.7174683 345.921212 30.4740712 346.959162 31.2937244 347.34083 31.004563 347.575881 30.5914752 347.766715 30.1392527 349.640145 30.4392849 349.893814 32.2742645 352.698141 31.6828966 352.712104 32.8199752 353.768672 32.9743396 353.943215 33.9831435 355.725882 33.4374328 356.463618 33.8483464 357.641202 34.7419206 357.303752 36.307306 357.557422 36.0572792 357.641202 37.8118153 358.357993 38.2749085 359.998699 37.8466016 361.325227 38.5858114 358.930495 40.5425431 361.306609 42.2579446 362.567974 43.9472564 362.14907 44.4538325 361.467188 44.7103818 360.910977 45.099554 361.76973 46.971494 362.265432 49.1978199 362.982223 51.2241243L362.344559 51.0393219 362.137434 51.6176448C361.595187 51.4763253 361.49977 50.937137 360.910977 50.8436487 359.284235 51.2306468 360.526983 53.150418 360.510692 54.2983673 358.309121 53.6809097 357.704038 56.0616 358.036834 58.898861 355.248798 59.2510728 352.777267 60.0837708 353.943215 63.1188792 352.493343 63.3232489 352.921556 61.7513411 351.485647 61.9600591 349.523783 62.9623406 348.376452 64.6951353 346.959162 66.1800773 345.553508 66.1257236 344.711046 65.3365085 344.085018 66.562727L343.468299 66.3714022 342.877179 66.562727C342.670055 63.3449904 340.836188 66.7083948 340.391685 67.7193729L339.784275 67.528048 339.57715 68.106371C338.853378 67.6084914 337.950408 67.3019368 337.917827 66.1800773 336.69137 66.1692065 336.321339 66.9888597 335.462587 67.3323749L334.985502 66.7562261 334.23613 66.9497251zM322 178.709525C322.105102 178.206444 323.169262 178.595279 323.169262 178 324.12832 178.142306 322.792646 179.006162 322 178.709525M334.250699 76C334.668918 76.086252 334.504696 76.6900164 335.017069 76.6900164 334.938243 77.1092414 334.642643 76.9026377 334.642643 76.6900164 333.514983 77.2115404 334.204717 76.9768546 334.250699 76M345 406.412071C345.82768 405.30283 346.815203 406.831296 345 406.412071M355.49298 284.772597C354.005268 284.237209 356.272626 283.198515 357.18963 283 357.01745 283.519347 356.686632 283.892314 356.512517 284.419682 356.117858 284.483848 355.905051 284.345489 355.83734 284.062756 355.508457 284.070777 355.558757 284.497885 355.49298 284.772597M494.832978 231.841205L494.416843 231.841205C492.43491 232.775108 494.560257 235.141993 494.010112 237.146884 491.661415 237.506736 491.691978 235.701049 490.257839 235.244808 484.173327 236.765612 490.793878 243.83628 487.782186 246.207449 484.735227 245.830461 486.249302 241.308746 483.625533 240.539776 480.933583 241.349444 478.3921 242.306908 478.229878 245.444905L477.616254 245.254269 477.825497 245.830461C476.795738 246.52232 476.421922 247.831068 474.910198 248.077396 472.817765 248.387983 473.863982 245.766202 472.432193 245.444905 470.15873 246.023239 470.259825 248.752119 466.61335 248.077396 465.919791 248.328007 466.665073 249.885225 465.809291 249.985898L465.600048 249.416132 464.972318 249.604626C463.87673 249.422558 463.571094 249.302607 462.491963 248.475804 460.140915 249.341163 462.604813 254.625422 458.753796 254.130625 457.709931 252.605537 459.912863 251.290362 459.172283 248.842082 456.971702 247.764667 453.327578 246.290986 449.220297 247.336272 447.188991 249.268335 446.290891 252.224265 443.822291 253.757921L443.615398 253.186013 443.001775 252.995377C443.939843 250.911232 444.0668 248.261606 444.661615 245.072201 443.262741 244.07404 441.391307 243.49999 440.9258 241.681451 438.704059 242.735304 436.881997 241.370864 434.709629 241.291611 432.664217 241.31303 432.774716 243.311496 430.148596 242.805989 428.171364 240.807524 430.071011 238.350675 431.794329 237.506736 431.601543 235.551111 427.78109 236.885563 427.654134 234.87853 421.934034 235.840278 416.801696 237.3161 413.963981 240.908197L410.660759 240.908197 410.660759 238.64841C415.219441 235.244808 423.610331 235.317635 426.833618 230.712383 426.897096 229.778481 426.18708 229.545005 425.994294 228.825301 425.042119 229.058776 423.49513 229.579277 422.679316 228.825301 421.934034 226.520533 424.513134 227.21025 423.915967 225.04471 421.856449 223.286147 418.42627 227.133138 415.219441 225.428124L415.219441 223.541042C418.633163 223.256159 421.127625 222.495757 421.435612 220.139581 421.856449 216.860214 417.746818 214.840329 413.963981 214.476192 412.177185 214.294124 408.937441 215.515052 409.000919 212.571974 412.078441 211.824424 417.876125 214.746082 416.879281 209.943768 417.476447 210.136546 419.037543 209.49181 418.955256 210.322898 420.920732 209.605335 421.003019 207.152771 421.435612 205.032213 423.147175 203.310063 426.250558 202.875242 428.491107 201.620043 428.40882 199.426657 426.123602 199.242447 425.994294 197.087618 426.654938 196.322932 428.07262 196.205123 429.73246 196.344352 432.598388 193.900355 436.512883 192.448094 442.58799 192.938607 443.274496 192.315292 442.92419 190.730228 443.001775 189.541431 444.51585 189.286535 446.013467 189.014504 447.978943 189.162301 448.942873 188.926683 447.915465 186.827545 448.80181 186.521242 452.248447 185.332445 455.502297 189.050918 459.59312 187.273076 460.895601 187.210959 460.96143 188.281948 462.491963 188.022768 463.507615 187.311632 460.606422 187.001045 461.236503 185.388136 464.248195 184.06011 465.875121 186.504106 467.889969 187.273076 470.010614 187.168119 469.789615 185.248907 472.009005 186.13997 473.041115 186.579076 472.798957 188.206979 473.685302 188.778887 476.003435 188.883843 476.022244 186.896088 478.229878 186.896088 478.810587 187.782867 478.937543 189.04235 479.485337 189.922703 481.866949 189.631394 482.544051 190.90587 484.457804 191.047241L484.457804 193.315595C485.927209 193.268472 486.312781 192.244606 487.782186 192.176063L487.989078 192.741545 488.619159 192.557335C488.905987 193.59191 487.782186 193.315595 487.782186 194.075997 489.792332 194.311615 490.43887 196.740618 492.740546 195.581808 493.69272 196.357204 493.596327 198.083638 494.416843 198.991836 495.992045 199.302423 494.896457 197.160445 496.47401 197.46889 495.947375 201.005295 496.655041 204.233255 501.035043 205.032213 500.75997 207.165623 501.439423 208.457235 501.874367 209.943768 501.390051 210.496398 500.842257 210.997621 500.212176 211.45172 500.057007 213.229561 502.920583 212.261388 503.127476 213.717932 503.468378 215.551465 500.423771 214.268421 500.212176 215.605015 500.501355 217.483529 503.306155 217.065843 503.127476 219.374895 501.643964 220.103168 500.858714 219.259229 499.807796 218.625203 497.701257 220.064612 500.600099 221.392638 500.212176 223.541042 500.555429 225.093976 498.232594 224.247894 498.557038 225.794402 498.009244 227.460861 500.165155 226.612638 499.807796 228.075609 500.148698 229.133746 499.215332 229.045924 499.394012 229.962691 498.265508 230.440352 497.087633 230.888025 495.235008 230.712383L495.235008 231.468501 494.623735 231.284291 494.832978 231.841205zM415.946976 360.207384C416.113388 361.295668 415.108348 361.327735 414.013534 361.255583 413.864639 359.740404 414.972591 359.89072 415.946976 360.207384M435.24351 407.812316C434.525311 408.744272 435.501886 406.515594 436.789388 407.098818 436.596701 407.38542 436.386496 407.674026 436.417151 408.165057 436.040535 408.165057 436.101845 407.730144 436.025208 407.463584 435.712091 407.529723 435.635453 407.812316 435.24351 407.812316M440.3117 403.456416C440.298562 403.462433 440.3117 403.813459 440.3117 403.813459 439.00668 403.606855 442.352435 402.335139 440.3117 403.456416M463.195507 68C463.569934 68 463.482349 68.4270371 463.569934 68.7157383 465.851528 67.2461692 462.133537 70.3837894 463.195507 68M503.328856 302.285977C502.669778 302.057129 503.105514 301.45891 503.72299 301.569319 503.795247 301.276232 503.571905 301.240098 503.328856 301.226046 504.095227 300.449165 504.095227 301.892518 503.328856 302.285977M510 328.73326L510 328.038127C510.731336 328.190375 512.323197 327.553337 511.933443 328.73326 511.12109 328.883505 510.913076 328.484855 510.389754 328.398715 510.313117 328.685181 510.538649 328.72124 510.761991 328.73326 510.597769 329.256112 510.431357 328.699204 510 328.73326M526 145.049929C526.271514 143.743529 527.291881 145.316419 527.545879 144 528.673538 144.486895 526.902127 145.258312 526 145.049929M639.342438 44.1238977C639.057786 44.9952027 638.591395 42.6041331 639.714675 43.0578541 639.835105 43.6260092 639.355576 43.6681691 639.342438 44.1238977M641.389754 41.1048556C640.958397 41.0346304 641.17955 40.7477102 641.389754 40.7477102 641.466391 40.4507577 641.240859 40.4186548 641 40.3885582 641.497046 39.3090961 642.167073 40.7878389 641.389754 41.1048556M646.447519 38.0692902C645.602322 38.6051352 646.08404 37.1902636 646.821945 37.0076348 647.270819 36.8992616 646.607362 37.9789793 646.447519 38.0692902M141.465402 194.001456C142.54708 193.95979 142.595251 194.819615 142.621527 195.668076 142.30841 195.855571 141.990914 196.020339 141.465402 196.007082 141.150096 195.774134 140.598309 194.137816 141.465402 194.001456M581.001491 266.090428C580.911076 264.176899 584.966821 265.020455 584.184088 266.783707 582.308629 267.194464 582.414543 266.048351 581.001491 266.090428M612.100547 254C613.541323 254.343471 612.718022 257.220348 611.331987 257.003547 610.390446 255.909798 611.710793 254.908616 612.100547 254" mask="url(#splash-h)"/>
  </g>
</svg>
